<svg width="512" height="226" viewBox="0 0 512 226" fill="none" xmlns="http://www.w3.org/2000/svg">
<path d="M140.61 130.054H134.654V107.376C134.654 95.7587 124.061 87.9526 108.296 87.9526C92.531 87.9526 81.939 95.7587 81.939 107.376V130.054H65.571L91.248 29.3982C92.349 26.6536 92.442 23.6521 92.434 21.0104L92.433 20.7265C92.433 5.10243 69.467 0 61.552 0C51.42 0 43.138 5.1454 38.829 14.1159C38.63 14.5307 38.47 14.9625 38.348 15.4052C0 155.958 0 157.958 0 159.282C0 171.372 8.537 180.147 20.297 180.147H33.97C38.17 180.147 41.574 176.744 41.574 172.547C41.574 168.35 38.17 164.947 33.97 164.947H20.297C17.113 164.947 15.41 163.254 15.225 159.909C17.179 151.306 38.481 72.7013 52.818 20.1488C54.603 16.8625 57.539 15.1973 61.552 15.1973C66.841 15.1973 75.907 18.5337 77.225 20.9265L77.226 21.0544C77.227 21.6381 77.232 23.1373 77.094 23.809C76.916 24.2058 76.773 24.6176 76.664 25.0394L48.417 135.777C47.837 138.05 48.341 140.464 49.782 142.317C51.222 144.17 53.438 145.254 55.786 145.254H89.543C93.743 145.254 97.147 141.85 97.147 137.654V107.375C97.147 104.848 102.913 103.152 108.296 103.152C113.777 103.152 119.446 104.732 119.446 107.375V137.654C119.446 141.85 122.85 145.254 127.05 145.254H140.61C142.862 145.254 144.836 149.922 144.836 155.245C144.836 160.255 141.814 164.411 140.454 164.948H127.05C122.85 164.948 119.446 168.351 119.446 172.548V206.576C119.446 208.529 114.574 210.799 108.296 210.799C101.829 210.799 97.147 208.277 97.147 206.576V172.548C97.147 168.351 93.743 164.948 89.543 164.948H59.318C55.118 164.948 51.714 168.351 51.714 172.548C51.714 176.745 55.118 180.148 59.318 180.148H81.939V206.576C81.939 217.83 93.025 225.999 108.296 225.999C123.816 225.999 134.654 218.012 134.654 206.576V180.148H140.61C149.802 180.148 160.044 169.921 160.044 155.245C160.043 140.649 151.87 130.054 140.61 130.054Z" fill="#070707"/>
<path d="M492.566 130.054H486.61V107.376C486.61 95.7587 476.017 87.9526 460.252 87.9526C444.487 87.9526 433.895 95.7587 433.895 107.376V130.054H417.527L443.206 29.3971C444.306 26.6535 444.399 23.6501 444.391 21.0084L444.39 20.7275C444.39 5.1034 421.424 0.000976562 413.509 0.000976562C403.377 0.000976562 395.094 5.14638 390.785 14.1169C390.586 14.5316 390.426 14.9634 390.304 15.4062C390.304 15.4062 385.435 33.2492 379.179 56.2836C379.179 56.2846 379.179 56.2856 379.178 56.2866L371.299 85.3429C351.954 156.834 351.954 157.755 351.954 159.284C351.954 171.374 360.491 180.149 372.252 180.149H433.892V206.577C433.892 217.831 444.977 226 460.249 226C475.769 226 486.607 218.013 486.607 206.577V180.149H492.563C501.755 180.149 511.997 169.922 511.997 155.247C512 140.649 503.826 130.054 492.566 130.054ZM492.41 164.948H479.006C474.806 164.948 471.402 168.351 471.402 172.548V206.576C471.402 208.529 466.53 210.799 460.252 210.799C453.785 210.799 449.103 208.277 449.103 206.576V172.548C449.103 168.351 445.699 164.948 441.499 164.948H372.255C369.072 164.948 367.368 163.255 367.182 159.913C367.859 156.949 371.383 143.267 385.983 89.3149L393.86 60.2656C399.364 39.9998 403.794 23.754 404.776 20.1528C406.561 16.8665 409.497 15.2013 413.511 15.2013C418.8 15.2013 427.865 18.5376 429.184 20.9304L429.185 21.0543C429.186 21.6391 429.191 23.1433 429.052 23.815C428.875 24.2108 428.732 24.6226 428.623 25.0443L400.374 135.778C399.794 138.052 400.298 140.466 401.739 142.319C403.179 144.172 405.395 145.256 407.743 145.256H441.5C445.7 145.256 449.104 141.852 449.104 137.656V107.377C449.104 104.85 454.87 103.154 460.253 103.154C465.734 103.154 471.403 104.734 471.403 107.377V137.656C471.403 141.852 474.807 145.256 479.007 145.256H492.567C494.819 145.256 496.793 149.924 496.793 155.247C496.792 160.257 493.769 164.411 492.41 164.948Z" fill="#070707"/>
<path d="M330.892 63.9637C328.38 60.6024 323.613 59.9148 320.25 62.4285C316.888 64.9422 316.2 69.7058 318.715 73.0661C328.883 86.6563 334.257 102.837 334.257 119.861C334.257 162.988 299.153 198.073 256.005 198.073C212.855 198.073 177.752 162.987 177.752 119.861C177.752 76.7333 212.856 41.647 256.005 41.647C273.157 41.647 289.439 47.0882 303.088 57.383C306.441 59.9118 311.21 59.2451 313.739 55.8938C316.268 52.5435 315.601 47.7779 312.249 45.2492C295.938 32.9484 276.489 26.4467 256.004 26.4467C204.47 26.4467 162.543 68.3525 162.543 119.861C162.543 171.369 204.47 213.273 256.004 213.273C307.538 213.273 349.464 171.369 349.464 119.861C349.464 99.5298 343.042 80.2015 330.892 63.9637Z" fill="#070707"/>
<path d="M296.624 149.708L266.761 119.86L296.624 90.0116C299.592 87.0441 299.592 82.2325 296.622 79.264C293.651 76.2955 288.838 76.2955 285.868 79.264L256.005 109.112L226.142 79.264C223.171 76.2955 218.358 76.2955 215.388 79.264C212.418 82.2325 212.418 87.0441 215.388 90.0116L245.251 119.86L215.388 149.708C212.418 152.676 212.418 157.488 215.388 160.455C216.873 161.938 218.82 162.681 220.766 162.681C222.712 162.681 224.658 161.939 226.143 160.455L256.006 130.607L285.869 160.455C287.354 161.938 289.301 162.681 291.246 162.681C293.191 162.681 295.138 161.939 296.624 160.455C299.593 157.488 299.593 152.675 296.624 149.708Z" fill="#070707"/>
</svg>
